<svg width="150" height="150" xmlns="http://www.w3.org/2000/svg">
 <!-- Created with Method Draw - http://github.com/duopixel/Method-Draw/ -->
 <g>
  <title>background</title>
  <rect fill="#fff" id="canvas_background" height="152" width="152" y="-1" x="-1"/>
  <g display="none" overflow="visible" y="0" x="0" height="100%" width="100%" id="canvasGrid">
   <rect fill="url(#gridpattern)" stroke-width="0" y="0" x="0" height="100%" width="100%"/>
  </g>
 </g>
 <g>
  <title>Layer 1</title>
  <ellipse ry="70" rx="70" id="svg_2" cy="74.79999" cx="75.5" fill-opacity="null" stroke-width="1.5" fill="#b2b2b2"/>
  <path id="svg_6" d="m73.78217,92.79219l15.85546,-10.88163l-30.65576,0l-30.65569,0l0,-6.73624l0,-6.73625l30.30401,0c16.66718,0 30.30398,-0.34142 30.30398,-0.75872c0,-0.41729 -6.63515,-5.31402 -14.74477,-10.88162l-14.74481,-10.12291l13.62871,0l13.62866,0l20.81405,14.2634l20.81404,14.2634l-20.85397,14.23611l-20.85397,14.23611l-14.34772,0l-14.34775,0l15.8555,-10.88163l0.00001,0z" fill-opacity="null" stroke-opacity="null" stroke-width="1.5" stroke="null" fill="#ffffff"/>
 </g>
</svg>