<svg width="150" height="150" xmlns="http://www.w3.org/2000/svg">
 <!-- Created with Method Draw - http://github.com/duopixel/Method-Draw/ -->
 <g>
  <title>background</title>
  <rect fill="#fff" id="canvas_background" height="152" width="152" y="-1" x="-1"/>
  <g display="none" overflow="visible" y="0" x="0" height="100%" width="100%" id="canvasGrid">
   <rect fill="url(#gridpattern)" stroke-width="0" y="0" x="0" height="100%" width="100%"/>
  </g>
 </g>
 <g>
  <title>Layer 1</title>
  <ellipse ry="70" rx="70" id="svg_2" cy="74.79999" cx="75.5" fill-opacity="null" stroke-width="1.5" fill="#b2b2b2"/>
  <path id="svg_6" d="m79.51047,91.79219l-16.33112,-10.88163l31.57543,0l31.57536,0l0,-6.73624l0,-6.73625l-31.21313,0c-17.1672,0 -31.2131,-0.34142 -31.2131,-0.75872c0,-0.41729 6.83421,-5.31402 15.18711,-10.88162l15.18716,-10.12291l-14.03757,0l-14.03752,0l-21.43848,14.2634l-21.43847,14.2634l21.47959,14.23611l21.47958,14.23611l14.77815,0l14.77819,0l-16.33117,-10.88163l-0.00001,0z" fill-opacity="null" stroke-opacity="null" stroke-width="1.5" stroke="null" fill="#ffffff"/>
 </g>
</svg>